<mxfile host="Electron" agent="Mozilla/5.0 (Macintosh; Intel Mac OS X 10_15_7) AppleWebKit/537.36 (KHTML, like Gecko) draw.io/24.7.17 Chrome/128.0.6613.36 Electron/32.0.1 Safari/537.36" version="24.7.17">
  <diagram name="Page-1" id="2YBvvXClWsGukQMizWep">
    <mxGraphModel dx="3165" dy="1619" grid="0" gridSize="10" guides="1" tooltips="1" connect="1" arrows="1" fold="1" page="0" pageScale="1" pageWidth="850" pageHeight="1100" math="0" shadow="0">
      <root>
        <mxCell id="0" />
        <mxCell id="1" parent="0" />
        <mxCell id="aM9ryv3xv72pqoxQDRHE-1" value="calculatorView: CalculatorView" style="shape=umlLifeline;perimeter=lifelinePerimeter;whiteSpace=wrap;html=1;container=0;dropTarget=0;collapsible=0;recursiveResize=0;outlineConnect=0;portConstraint=eastwest;newEdgeStyle={&quot;edgeStyle&quot;:&quot;elbowEdgeStyle&quot;,&quot;elbow&quot;:&quot;vertical&quot;,&quot;curved&quot;:0,&quot;rounded&quot;:0};" parent="1" vertex="1">
          <mxGeometry x="40" y="40" width="100" height="1470" as="geometry" />
        </mxCell>
        <mxCell id="aM9ryv3xv72pqoxQDRHE-2" value="" style="html=1;points=[];perimeter=orthogonalPerimeter;outlineConnect=0;targetShapes=umlLifeline;portConstraint=eastwest;newEdgeStyle={&quot;edgeStyle&quot;:&quot;elbowEdgeStyle&quot;,&quot;elbow&quot;:&quot;vertical&quot;,&quot;curved&quot;:0,&quot;rounded&quot;:0};" parent="aM9ryv3xv72pqoxQDRHE-1" vertex="1">
          <mxGeometry x="45" y="70" width="10" height="1340" as="geometry" />
        </mxCell>
        <mxCell id="aM9ryv3xv72pqoxQDRHE-3" value="Press 4&amp;nbsp;" style="html=1;verticalAlign=bottom;startArrow=oval;endArrow=block;startSize=8;edgeStyle=elbowEdgeStyle;elbow=vertical;curved=0;rounded=0;" parent="aM9ryv3xv72pqoxQDRHE-1" target="aM9ryv3xv72pqoxQDRHE-2" edge="1">
          <mxGeometry relative="1" as="geometry">
            <mxPoint x="-15" y="70" as="sourcePoint" />
          </mxGeometry>
        </mxCell>
        <mxCell id="aM9ryv3xv72pqoxQDRHE-5" value="calculatorDriver: CalculatorDriver" style="shape=umlLifeline;perimeter=lifelinePerimeter;whiteSpace=wrap;html=1;container=0;dropTarget=0;collapsible=0;recursiveResize=0;outlineConnect=0;portConstraint=eastwest;newEdgeStyle={&quot;edgeStyle&quot;:&quot;elbowEdgeStyle&quot;,&quot;elbow&quot;:&quot;vertical&quot;,&quot;curved&quot;:0,&quot;rounded&quot;:0};" parent="1" vertex="1">
          <mxGeometry x="220" y="40" width="100" height="1470" as="geometry" />
        </mxCell>
        <mxCell id="aM9ryv3xv72pqoxQDRHE-6" value="" style="html=1;points=[];perimeter=orthogonalPerimeter;outlineConnect=0;targetShapes=umlLifeline;portConstraint=eastwest;newEdgeStyle={&quot;edgeStyle&quot;:&quot;elbowEdgeStyle&quot;,&quot;elbow&quot;:&quot;vertical&quot;,&quot;curved&quot;:0,&quot;rounded&quot;:0};" parent="aM9ryv3xv72pqoxQDRHE-5" vertex="1">
          <mxGeometry x="45" y="80" width="10" height="1330" as="geometry" />
        </mxCell>
        <mxCell id="aM9ryv3xv72pqoxQDRHE-7" value="actionPerformed()" style="html=1;verticalAlign=bottom;endArrow=block;edgeStyle=elbowEdgeStyle;elbow=vertical;curved=0;rounded=0;" parent="1" source="aM9ryv3xv72pqoxQDRHE-2" target="aM9ryv3xv72pqoxQDRHE-6" edge="1">
          <mxGeometry relative="1" as="geometry">
            <mxPoint x="195" y="130" as="sourcePoint" />
            <Array as="points">
              <mxPoint x="190" y="130" />
            </Array>
          </mxGeometry>
        </mxCell>
        <mxCell id="aM9ryv3xv72pqoxQDRHE-9" value="updateDisplay()" style="html=1;verticalAlign=bottom;endArrow=block;edgeStyle=elbowEdgeStyle;elbow=vertical;curved=0;rounded=0;" parent="1" edge="1">
          <mxGeometry relative="1" as="geometry">
            <mxPoint x="261.9999999999998" y="232" as="sourcePoint" />
            <Array as="points">
              <mxPoint x="187" y="232" />
            </Array>
            <mxPoint x="97" y="232" as="targetPoint" />
          </mxGeometry>
        </mxCell>
        <mxCell id="qVZMZbQw3n8nsIhbzsBQ-1" value="User" style="shape=umlActor;verticalLabelPosition=bottom;verticalAlign=top;html=1;outlineConnect=0;" vertex="1" parent="1">
          <mxGeometry x="-110" y="150" width="60" height="110" as="geometry" />
        </mxCell>
        <mxCell id="qVZMZbQw3n8nsIhbzsBQ-3" value="currentState:&lt;br&gt;State" style="shape=umlLifeline;perimeter=lifelinePerimeter;whiteSpace=wrap;html=1;container=0;dropTarget=0;collapsible=0;recursiveResize=0;outlineConnect=0;portConstraint=eastwest;newEdgeStyle={&quot;edgeStyle&quot;:&quot;elbowEdgeStyle&quot;,&quot;elbow&quot;:&quot;vertical&quot;,&quot;curved&quot;:0,&quot;rounded&quot;:0};" vertex="1" parent="1">
          <mxGeometry x="400" y="40" width="100" height="1470" as="geometry" />
        </mxCell>
        <mxCell id="qVZMZbQw3n8nsIhbzsBQ-4" value="" style="html=1;points=[];perimeter=orthogonalPerimeter;outlineConnect=0;targetShapes=umlLifeline;portConstraint=eastwest;newEdgeStyle={&quot;edgeStyle&quot;:&quot;elbowEdgeStyle&quot;,&quot;elbow&quot;:&quot;vertical&quot;,&quot;curved&quot;:0,&quot;rounded&quot;:0};" vertex="1" parent="qVZMZbQw3n8nsIhbzsBQ-3">
          <mxGeometry x="45" y="320" width="10" height="880" as="geometry" />
        </mxCell>
        <mxCell id="qVZMZbQw3n8nsIhbzsBQ-71" value="" style="html=1;points=[];perimeter=orthogonalPerimeter;outlineConnect=0;targetShapes=umlLifeline;portConstraint=eastwest;newEdgeStyle={&quot;edgeStyle&quot;:&quot;elbowEdgeStyle&quot;,&quot;elbow&quot;:&quot;vertical&quot;,&quot;curved&quot;:0,&quot;rounded&quot;:0};" vertex="1" parent="qVZMZbQw3n8nsIhbzsBQ-3">
          <mxGeometry x="50" y="919" width="10" height="40" as="geometry" />
        </mxCell>
        <mxCell id="qVZMZbQw3n8nsIhbzsBQ-72" style="edgeStyle=elbowEdgeStyle;rounded=0;orthogonalLoop=1;jettySize=auto;html=1;elbow=vertical;curved=0;" edge="1" parent="qVZMZbQw3n8nsIhbzsBQ-3" source="qVZMZbQw3n8nsIhbzsBQ-71" target="qVZMZbQw3n8nsIhbzsBQ-71">
          <mxGeometry relative="1" as="geometry" />
        </mxCell>
        <mxCell id="qVZMZbQw3n8nsIhbzsBQ-5" value="getNextState(button pressed)" style="html=1;verticalAlign=bottom;endArrow=block;edgeStyle=elbowEdgeStyle;elbow=vertical;curved=0;rounded=0;" edge="1" parent="1">
          <mxGeometry x="-0.0014" relative="1" as="geometry">
            <mxPoint x="275" y="144" as="sourcePoint" />
            <Array as="points">
              <mxPoint x="300" y="144" />
            </Array>
            <mxPoint x="445" y="144" as="targetPoint" />
            <mxPoint as="offset" />
          </mxGeometry>
        </mxCell>
        <mxCell id="qVZMZbQw3n8nsIhbzsBQ-6" value="return GetFirstOp" style="html=1;verticalAlign=bottom;endArrow=open;dashed=1;endSize=8;edgeStyle=elbowEdgeStyle;elbow=vertical;curved=0;rounded=0;" edge="1" parent="1">
          <mxGeometry relative="1" as="geometry">
            <mxPoint x="275" y="221" as="targetPoint" />
            <Array as="points">
              <mxPoint x="375" y="221" />
            </Array>
            <mxPoint x="445" y="221" as="sourcePoint" />
          </mxGeometry>
        </mxCell>
        <mxCell id="qVZMZbQw3n8nsIhbzsBQ-21" value="setCurrentExpression(Atomic(4))" style="html=1;verticalAlign=bottom;endArrow=block;edgeStyle=elbowEdgeStyle;elbow=vertical;curved=0;rounded=0;" edge="1" parent="1">
          <mxGeometry relative="1" as="geometry">
            <mxPoint x="445" y="172" as="sourcePoint" />
            <Array as="points">
              <mxPoint x="370" y="172" />
            </Array>
            <mxPoint x="275" y="172" as="targetPoint" />
          </mxGeometry>
        </mxCell>
        <mxCell id="qVZMZbQw3n8nsIhbzsBQ-22" value="Press +&amp;nbsp;" style="html=1;verticalAlign=bottom;startArrow=oval;endArrow=block;startSize=8;edgeStyle=elbowEdgeStyle;elbow=vertical;curved=0;rounded=0;" edge="1" parent="1">
          <mxGeometry relative="1" as="geometry">
            <mxPoint x="25" y="247" as="sourcePoint" />
            <mxPoint x="85" y="247" as="targetPoint" />
          </mxGeometry>
        </mxCell>
        <mxCell id="qVZMZbQw3n8nsIhbzsBQ-23" value="actionPerformed()" style="html=1;verticalAlign=bottom;endArrow=block;edgeStyle=elbowEdgeStyle;elbow=vertical;curved=0;rounded=0;" edge="1" parent="1">
          <mxGeometry relative="1" as="geometry">
            <mxPoint x="96" y="260" as="sourcePoint" />
            <Array as="points">
              <mxPoint x="191" y="260" />
            </Array>
            <mxPoint x="266" y="260" as="targetPoint" />
          </mxGeometry>
        </mxCell>
        <mxCell id="qVZMZbQw3n8nsIhbzsBQ-24" value="getNextState(button pressed)" style="html=1;verticalAlign=bottom;endArrow=block;edgeStyle=elbowEdgeStyle;elbow=vertical;curved=0;rounded=0;" edge="1" parent="1">
          <mxGeometry x="-0.0014" relative="1" as="geometry">
            <mxPoint x="275" y="276" as="sourcePoint" />
            <Array as="points">
              <mxPoint x="300" y="276" />
            </Array>
            <mxPoint x="445" y="276" as="targetPoint" />
            <mxPoint as="offset" />
          </mxGeometry>
        </mxCell>
        <mxCell id="qVZMZbQw3n8nsIhbzsBQ-25" value="setCurrentExpression(AddSub)" style="html=1;verticalAlign=bottom;endArrow=block;edgeStyle=elbowEdgeStyle;elbow=vertical;curved=0;rounded=0;" edge="1" parent="1">
          <mxGeometry relative="1" as="geometry">
            <mxPoint x="444" y="308" as="sourcePoint" />
            <Array as="points">
              <mxPoint x="369" y="308" />
            </Array>
            <mxPoint x="274" y="308" as="targetPoint" />
          </mxGeometry>
        </mxCell>
        <mxCell id="qVZMZbQw3n8nsIhbzsBQ-26" value="return WaitAddSub" style="html=1;verticalAlign=bottom;endArrow=open;dashed=1;endSize=8;edgeStyle=elbowEdgeStyle;elbow=vertical;curved=0;rounded=0;" edge="1" parent="1">
          <mxGeometry relative="1" as="geometry">
            <mxPoint x="275" y="352" as="targetPoint" />
            <Array as="points">
              <mxPoint x="375" y="352" />
            </Array>
            <mxPoint x="445" y="352" as="sourcePoint" />
          </mxGeometry>
        </mxCell>
        <mxCell id="qVZMZbQw3n8nsIhbzsBQ-27" value="updateDisplay()" style="html=1;verticalAlign=bottom;endArrow=block;edgeStyle=elbowEdgeStyle;elbow=vertical;curved=0;rounded=0;" edge="1" parent="1">
          <mxGeometry relative="1" as="geometry">
            <mxPoint x="261.9999999999998" y="362" as="sourcePoint" />
            <Array as="points">
              <mxPoint x="187" y="362" />
            </Array>
            <mxPoint x="97" y="362" as="targetPoint" />
          </mxGeometry>
        </mxCell>
        <mxCell id="qVZMZbQw3n8nsIhbzsBQ-28" value="Press 5" style="html=1;verticalAlign=bottom;startArrow=oval;endArrow=block;startSize=8;edgeStyle=elbowEdgeStyle;elbow=horizontal;curved=0;rounded=0;" edge="1" parent="1">
          <mxGeometry relative="1" as="geometry">
            <mxPoint x="25" y="377" as="sourcePoint" />
            <mxPoint x="85" y="377" as="targetPoint" />
          </mxGeometry>
        </mxCell>
        <mxCell id="qVZMZbQw3n8nsIhbzsBQ-29" value="actionPerformed()" style="html=1;verticalAlign=bottom;endArrow=block;edgeStyle=elbowEdgeStyle;elbow=vertical;curved=0;rounded=0;" edge="1" parent="1">
          <mxGeometry relative="1" as="geometry">
            <mxPoint x="95" y="390" as="sourcePoint" />
            <Array as="points">
              <mxPoint x="190" y="390" />
            </Array>
            <mxPoint x="265" y="390" as="targetPoint" />
          </mxGeometry>
        </mxCell>
        <mxCell id="qVZMZbQw3n8nsIhbzsBQ-30" value="getNextState(button pressed)" style="html=1;verticalAlign=bottom;endArrow=block;edgeStyle=elbowEdgeStyle;elbow=vertical;curved=0;rounded=0;" edge="1" parent="1">
          <mxGeometry x="-0.0014" relative="1" as="geometry">
            <mxPoint x="275" y="405" as="sourcePoint" />
            <Array as="points">
              <mxPoint x="300" y="405" />
            </Array>
            <mxPoint x="445" y="405" as="targetPoint" />
            <mxPoint as="offset" />
          </mxGeometry>
        </mxCell>
        <mxCell id="qVZMZbQw3n8nsIhbzsBQ-31" value="getCurrentExpression()" style="html=1;verticalAlign=bottom;endArrow=block;edgeStyle=elbowEdgeStyle;elbow=vertical;curved=0;rounded=0;" edge="1" parent="1">
          <mxGeometry relative="1" as="geometry">
            <mxPoint x="444" y="429.58" as="sourcePoint" />
            <Array as="points">
              <mxPoint x="369" y="429.58" />
            </Array>
            <mxPoint x="274" y="429.58" as="targetPoint" />
          </mxGeometry>
        </mxCell>
        <mxCell id="qVZMZbQw3n8nsIhbzsBQ-32" value="return GetAddSub" style="html=1;verticalAlign=bottom;endArrow=open;dashed=1;endSize=8;edgeStyle=elbowEdgeStyle;elbow=vertical;curved=0;rounded=0;" edge="1" parent="1">
          <mxGeometry relative="1" as="geometry">
            <mxPoint x="275" y="503" as="targetPoint" />
            <Array as="points">
              <mxPoint x="375" y="503" />
            </Array>
            <mxPoint x="445" y="503" as="sourcePoint" />
          </mxGeometry>
        </mxCell>
        <mxCell id="qVZMZbQw3n8nsIhbzsBQ-33" value="return currentExpression" style="html=1;verticalAlign=bottom;endArrow=open;dashed=1;endSize=8;edgeStyle=elbowEdgeStyle;elbow=vertical;curved=0;rounded=0;" edge="1" parent="1">
          <mxGeometry relative="1" as="geometry">
            <mxPoint x="442.9999999999998" y="460" as="targetPoint" />
            <Array as="points">
              <mxPoint x="358" y="460" />
            </Array>
            <mxPoint x="278" y="460" as="sourcePoint" />
          </mxGeometry>
        </mxCell>
        <mxCell id="qVZMZbQw3n8nsIhbzsBQ-34" value="currentExpression: Expression" style="shape=umlLifeline;perimeter=lifelinePerimeter;whiteSpace=wrap;html=1;container=0;dropTarget=0;collapsible=0;recursiveResize=0;outlineConnect=0;portConstraint=eastwest;newEdgeStyle={&quot;edgeStyle&quot;:&quot;elbowEdgeStyle&quot;,&quot;elbow&quot;:&quot;vertical&quot;,&quot;curved&quot;:0,&quot;rounded&quot;:0};" vertex="1" parent="1">
          <mxGeometry x="570" y="40" width="120" height="1470" as="geometry" />
        </mxCell>
        <mxCell id="qVZMZbQw3n8nsIhbzsBQ-35" value="" style="html=1;points=[];perimeter=orthogonalPerimeter;outlineConnect=0;targetShapes=umlLifeline;portConstraint=eastwest;newEdgeStyle={&quot;edgeStyle&quot;:&quot;elbowEdgeStyle&quot;,&quot;elbow&quot;:&quot;vertical&quot;,&quot;curved&quot;:0,&quot;rounded&quot;:0};" vertex="1" parent="qVZMZbQw3n8nsIhbzsBQ-34">
          <mxGeometry x="55" y="420" width="10" height="40" as="geometry" />
        </mxCell>
        <mxCell id="qVZMZbQw3n8nsIhbzsBQ-43" value="" style="html=1;points=[];perimeter=orthogonalPerimeter;outlineConnect=0;targetShapes=umlLifeline;portConstraint=eastwest;newEdgeStyle={&quot;edgeStyle&quot;:&quot;elbowEdgeStyle&quot;,&quot;elbow&quot;:&quot;vertical&quot;,&quot;curved&quot;:0,&quot;rounded&quot;:0};" vertex="1" parent="qVZMZbQw3n8nsIhbzsBQ-34">
          <mxGeometry x="55" y="520" width="10" height="90" as="geometry" />
        </mxCell>
        <mxCell id="qVZMZbQw3n8nsIhbzsBQ-59" value="" style="html=1;points=[];perimeter=orthogonalPerimeter;outlineConnect=0;targetShapes=umlLifeline;portConstraint=eastwest;newEdgeStyle={&quot;edgeStyle&quot;:&quot;elbowEdgeStyle&quot;,&quot;elbow&quot;:&quot;vertical&quot;,&quot;curved&quot;:0,&quot;rounded&quot;:0};" vertex="1" parent="qVZMZbQw3n8nsIhbzsBQ-34">
          <mxGeometry x="55" y="790" width="10" height="40" as="geometry" />
        </mxCell>
        <mxCell id="qVZMZbQw3n8nsIhbzsBQ-80" value="" style="html=1;points=[];perimeter=orthogonalPerimeter;outlineConnect=0;targetShapes=umlLifeline;portConstraint=eastwest;newEdgeStyle={&quot;edgeStyle&quot;:&quot;elbowEdgeStyle&quot;,&quot;elbow&quot;:&quot;vertical&quot;,&quot;curved&quot;:0,&quot;rounded&quot;:0};" vertex="1" parent="qVZMZbQw3n8nsIhbzsBQ-34">
          <mxGeometry x="55" y="1020" width="10" height="60" as="geometry" />
        </mxCell>
        <mxCell id="qVZMZbQw3n8nsIhbzsBQ-36" value="enterDigit(5)" style="html=1;verticalAlign=bottom;endArrow=block;edgeStyle=elbowEdgeStyle;elbow=vertical;curved=0;rounded=0;" edge="1" parent="1">
          <mxGeometry x="-0.0014" relative="1" as="geometry">
            <mxPoint x="455" y="470" as="sourcePoint" />
            <Array as="points">
              <mxPoint x="480" y="470" />
            </Array>
            <mxPoint x="625" y="470" as="targetPoint" />
            <mxPoint as="offset" />
          </mxGeometry>
        </mxCell>
        <mxCell id="qVZMZbQw3n8nsIhbzsBQ-38" value="updateDisplay()" style="html=1;verticalAlign=bottom;endArrow=block;edgeStyle=elbowEdgeStyle;elbow=vertical;curved=0;rounded=0;" edge="1" parent="1">
          <mxGeometry relative="1" as="geometry">
            <mxPoint x="261.9999999999998" y="512" as="sourcePoint" />
            <Array as="points">
              <mxPoint x="187" y="512" />
            </Array>
            <mxPoint x="97" y="512" as="targetPoint" />
          </mxGeometry>
        </mxCell>
        <mxCell id="qVZMZbQw3n8nsIhbzsBQ-39" value="Press *" style="html=1;verticalAlign=bottom;startArrow=oval;endArrow=block;startSize=8;edgeStyle=elbowEdgeStyle;elbow=horizontal;curved=0;rounded=0;" edge="1" parent="1">
          <mxGeometry relative="1" as="geometry">
            <mxPoint x="25" y="524" as="sourcePoint" />
            <mxPoint x="85" y="524" as="targetPoint" />
          </mxGeometry>
        </mxCell>
        <mxCell id="qVZMZbQw3n8nsIhbzsBQ-40" value="actionPerformed()" style="html=1;verticalAlign=bottom;endArrow=block;edgeStyle=elbowEdgeStyle;elbow=vertical;curved=0;rounded=0;" edge="1" parent="1">
          <mxGeometry relative="1" as="geometry">
            <mxPoint x="96" y="538" as="sourcePoint" />
            <Array as="points">
              <mxPoint x="191" y="538" />
            </Array>
            <mxPoint x="266" y="538" as="targetPoint" />
          </mxGeometry>
        </mxCell>
        <mxCell id="qVZMZbQw3n8nsIhbzsBQ-41" value="getNextState(button pressed)" style="html=1;verticalAlign=bottom;endArrow=block;edgeStyle=elbowEdgeStyle;elbow=vertical;curved=0;rounded=0;" edge="1" parent="1">
          <mxGeometry x="-0.0014" relative="1" as="geometry">
            <mxPoint x="275" y="550" as="sourcePoint" />
            <Array as="points">
              <mxPoint x="300" y="550" />
            </Array>
            <mxPoint x="445" y="550" as="targetPoint" />
            <mxPoint as="offset" />
          </mxGeometry>
        </mxCell>
        <mxCell id="qVZMZbQw3n8nsIhbzsBQ-42" value="setCurrentExpression(AddSub)" style="html=1;verticalAlign=bottom;endArrow=block;edgeStyle=elbowEdgeStyle;elbow=vertical;curved=0;rounded=0;" edge="1" parent="1">
          <mxGeometry relative="1" as="geometry">
            <mxPoint x="444" y="658" as="sourcePoint" />
            <Array as="points">
              <mxPoint x="369" y="658" />
            </Array>
            <mxPoint x="274" y="658" as="targetPoint" />
          </mxGeometry>
        </mxCell>
        <mxCell id="qVZMZbQw3n8nsIhbzsBQ-44" value="getRight()" style="html=1;verticalAlign=bottom;endArrow=block;edgeStyle=elbowEdgeStyle;elbow=vertical;curved=0;rounded=0;" edge="1" parent="1">
          <mxGeometry x="-0.0014" relative="1" as="geometry">
            <mxPoint x="455" y="574" as="sourcePoint" />
            <Array as="points">
              <mxPoint x="480" y="574" />
            </Array>
            <mxPoint x="625" y="574" as="targetPoint" />
            <mxPoint as="offset" />
          </mxGeometry>
        </mxCell>
        <mxCell id="qVZMZbQw3n8nsIhbzsBQ-45" value="return" style="html=1;verticalAlign=bottom;endArrow=open;dashed=1;endSize=8;edgeStyle=elbowEdgeStyle;elbow=vertical;curved=0;rounded=0;" edge="1" parent="1">
          <mxGeometry relative="1" as="geometry">
            <mxPoint x="455" y="594" as="targetPoint" />
            <Array as="points">
              <mxPoint x="555" y="594" />
            </Array>
            <mxPoint x="625" y="594" as="sourcePoint" />
          </mxGeometry>
        </mxCell>
        <mxCell id="qVZMZbQw3n8nsIhbzsBQ-46" value="setRight(newMulDiv)" style="html=1;verticalAlign=bottom;endArrow=block;edgeStyle=elbowEdgeStyle;elbow=vertical;curved=0;rounded=0;" edge="1" parent="1">
          <mxGeometry x="-0.0014" relative="1" as="geometry">
            <mxPoint x="456" y="616" as="sourcePoint" />
            <Array as="points">
              <mxPoint x="481" y="616" />
            </Array>
            <mxPoint x="626" y="616" as="targetPoint" />
            <mxPoint as="offset" />
          </mxGeometry>
        </mxCell>
        <mxCell id="qVZMZbQw3n8nsIhbzsBQ-47" value="return" style="html=1;verticalAlign=bottom;endArrow=open;dashed=1;endSize=8;edgeStyle=elbowEdgeStyle;elbow=vertical;curved=0;rounded=0;" edge="1" parent="1">
          <mxGeometry relative="1" as="geometry">
            <mxPoint x="454" y="640" as="targetPoint" />
            <Array as="points">
              <mxPoint x="554" y="640" />
            </Array>
            <mxPoint x="624" y="640" as="sourcePoint" />
          </mxGeometry>
        </mxCell>
        <mxCell id="qVZMZbQw3n8nsIhbzsBQ-48" value="return" style="html=1;verticalAlign=bottom;endArrow=open;dashed=1;endSize=8;edgeStyle=elbowEdgeStyle;elbow=vertical;curved=0;rounded=0;" edge="1" parent="1">
          <mxGeometry relative="1" as="geometry">
            <mxPoint x="440.9999999999998" y="680" as="targetPoint" />
            <Array as="points">
              <mxPoint x="356" y="680" />
            </Array>
            <mxPoint x="276" y="680" as="sourcePoint" />
          </mxGeometry>
        </mxCell>
        <mxCell id="qVZMZbQw3n8nsIhbzsBQ-49" value="return WaitMulDiv" style="html=1;verticalAlign=bottom;endArrow=open;dashed=1;endSize=8;edgeStyle=elbowEdgeStyle;elbow=vertical;curved=0;rounded=0;" edge="1" parent="1">
          <mxGeometry relative="1" as="geometry">
            <mxPoint x="275" y="704" as="targetPoint" />
            <Array as="points">
              <mxPoint x="375" y="704" />
            </Array>
            <mxPoint x="445" y="704" as="sourcePoint" />
          </mxGeometry>
        </mxCell>
        <mxCell id="qVZMZbQw3n8nsIhbzsBQ-50" value="return" style="html=1;verticalAlign=bottom;endArrow=open;dashed=1;endSize=8;edgeStyle=elbowEdgeStyle;elbow=vertical;curved=0;rounded=0;" edge="1" parent="1">
          <mxGeometry relative="1" as="geometry">
            <mxPoint x="444.9999999999998" y="330" as="targetPoint" />
            <Array as="points">
              <mxPoint x="360" y="330" />
            </Array>
            <mxPoint x="280" y="330" as="sourcePoint" />
          </mxGeometry>
        </mxCell>
        <mxCell id="qVZMZbQw3n8nsIhbzsBQ-51" value="return" style="html=1;verticalAlign=bottom;endArrow=open;dashed=1;endSize=8;edgeStyle=elbowEdgeStyle;elbow=vertical;curved=0;rounded=0;" edge="1" parent="1">
          <mxGeometry relative="1" as="geometry">
            <mxPoint x="444.9999999999998" y="191" as="targetPoint" />
            <Array as="points">
              <mxPoint x="360" y="191" />
            </Array>
            <mxPoint x="280" y="191" as="sourcePoint" />
          </mxGeometry>
        </mxCell>
        <mxCell id="qVZMZbQw3n8nsIhbzsBQ-52" value="updateDisplay()" style="html=1;verticalAlign=bottom;endArrow=block;edgeStyle=elbowEdgeStyle;elbow=vertical;curved=0;rounded=0;" edge="1" parent="1">
          <mxGeometry relative="1" as="geometry">
            <mxPoint x="260.9999999999998" y="720" as="sourcePoint" />
            <Array as="points">
              <mxPoint x="186" y="720" />
            </Array>
            <mxPoint x="96" y="720" as="targetPoint" />
          </mxGeometry>
        </mxCell>
        <mxCell id="qVZMZbQw3n8nsIhbzsBQ-53" value="Press 6" style="html=1;verticalAlign=bottom;startArrow=oval;endArrow=block;startSize=8;edgeStyle=elbowEdgeStyle;elbow=horizontal;curved=0;rounded=0;" edge="1" parent="1">
          <mxGeometry relative="1" as="geometry">
            <mxPoint x="24" y="731" as="sourcePoint" />
            <mxPoint x="84" y="731" as="targetPoint" />
          </mxGeometry>
        </mxCell>
        <mxCell id="qVZMZbQw3n8nsIhbzsBQ-54" value="actionPerformed()" style="html=1;verticalAlign=bottom;endArrow=block;edgeStyle=elbowEdgeStyle;elbow=vertical;curved=0;rounded=0;" edge="1" parent="1">
          <mxGeometry relative="1" as="geometry">
            <mxPoint x="96" y="750" as="sourcePoint" />
            <Array as="points">
              <mxPoint x="191" y="750" />
            </Array>
            <mxPoint x="266" y="750" as="targetPoint" />
          </mxGeometry>
        </mxCell>
        <mxCell id="qVZMZbQw3n8nsIhbzsBQ-55" value="getNextState(button pressed)" style="html=1;verticalAlign=bottom;endArrow=block;edgeStyle=elbowEdgeStyle;elbow=vertical;curved=0;rounded=0;" edge="1" parent="1">
          <mxGeometry x="-0.0014" relative="1" as="geometry">
            <mxPoint x="275" y="770" as="sourcePoint" />
            <Array as="points">
              <mxPoint x="300" y="770" />
            </Array>
            <mxPoint x="445" y="770" as="targetPoint" />
            <mxPoint as="offset" />
          </mxGeometry>
        </mxCell>
        <mxCell id="qVZMZbQw3n8nsIhbzsBQ-56" value="getCurrentExpression()" style="html=1;verticalAlign=bottom;endArrow=block;edgeStyle=elbowEdgeStyle;elbow=vertical;curved=0;rounded=0;" edge="1" parent="1">
          <mxGeometry relative="1" as="geometry">
            <mxPoint x="444" y="799.5799999999999" as="sourcePoint" />
            <Array as="points">
              <mxPoint x="369" y="799.5799999999999" />
            </Array>
            <mxPoint x="274" y="799.5799999999999" as="targetPoint" />
          </mxGeometry>
        </mxCell>
        <mxCell id="qVZMZbQw3n8nsIhbzsBQ-57" value="return currentExpression" style="html=1;verticalAlign=bottom;endArrow=open;dashed=1;endSize=8;edgeStyle=elbowEdgeStyle;elbow=vertical;curved=0;rounded=0;" edge="1" parent="1">
          <mxGeometry relative="1" as="geometry">
            <mxPoint x="442.9999999999998" y="830" as="targetPoint" />
            <Array as="points">
              <mxPoint x="358" y="830" />
            </Array>
            <mxPoint x="278" y="830" as="sourcePoint" />
          </mxGeometry>
        </mxCell>
        <mxCell id="qVZMZbQw3n8nsIhbzsBQ-58" value="enterDigit(5)" style="html=1;verticalAlign=bottom;endArrow=block;edgeStyle=elbowEdgeStyle;elbow=vertical;curved=0;rounded=0;" edge="1" parent="1">
          <mxGeometry x="0.0022" relative="1" as="geometry">
            <mxPoint x="454" y="844" as="sourcePoint" />
            <Array as="points">
              <mxPoint x="479" y="844" />
            </Array>
            <mxPoint x="624" y="844" as="targetPoint" />
            <mxPoint as="offset" />
          </mxGeometry>
        </mxCell>
        <mxCell id="qVZMZbQw3n8nsIhbzsBQ-60" value="return" style="html=1;verticalAlign=bottom;endArrow=open;dashed=1;endSize=8;edgeStyle=elbowEdgeStyle;elbow=vertical;curved=0;rounded=0;" edge="1" parent="1">
          <mxGeometry relative="1" as="geometry">
            <mxPoint x="454" y="490" as="targetPoint" />
            <Array as="points">
              <mxPoint x="554" y="490" />
            </Array>
            <mxPoint x="624" y="490" as="sourcePoint" />
          </mxGeometry>
        </mxCell>
        <mxCell id="qVZMZbQw3n8nsIhbzsBQ-61" value="return" style="html=1;verticalAlign=bottom;endArrow=open;dashed=1;endSize=8;edgeStyle=elbowEdgeStyle;elbow=vertical;curved=0;rounded=0;" edge="1" parent="1">
          <mxGeometry x="0.0022" relative="1" as="geometry">
            <mxPoint x="454" y="860" as="targetPoint" />
            <Array as="points">
              <mxPoint x="554" y="860" />
            </Array>
            <mxPoint x="624" y="860" as="sourcePoint" />
            <mxPoint as="offset" />
          </mxGeometry>
        </mxCell>
        <mxCell id="qVZMZbQw3n8nsIhbzsBQ-62" value="return GetMulDiv" style="html=1;verticalAlign=bottom;endArrow=open;dashed=1;endSize=8;edgeStyle=elbowEdgeStyle;elbow=vertical;curved=0;rounded=0;" edge="1" parent="1">
          <mxGeometry relative="1" as="geometry">
            <mxPoint x="275" y="874" as="targetPoint" />
            <Array as="points">
              <mxPoint x="375" y="874" />
            </Array>
            <mxPoint x="445" y="874" as="sourcePoint" />
          </mxGeometry>
        </mxCell>
        <mxCell id="qVZMZbQw3n8nsIhbzsBQ-63" value="updateDisplay()" style="html=1;verticalAlign=bottom;endArrow=block;edgeStyle=elbowEdgeStyle;elbow=vertical;curved=0;rounded=0;" edge="1" parent="1">
          <mxGeometry relative="1" as="geometry">
            <mxPoint x="260.9999999999998" y="890" as="sourcePoint" />
            <Array as="points">
              <mxPoint x="186" y="890" />
            </Array>
            <mxPoint x="96" y="890" as="targetPoint" />
          </mxGeometry>
        </mxCell>
        <mxCell id="qVZMZbQw3n8nsIhbzsBQ-64" value="Press 6" style="html=1;verticalAlign=bottom;startArrow=oval;endArrow=block;startSize=8;edgeStyle=elbowEdgeStyle;elbow=horizontal;curved=0;rounded=0;" edge="1" parent="1">
          <mxGeometry relative="1" as="geometry">
            <mxPoint x="20" y="910" as="sourcePoint" />
            <mxPoint x="80" y="910" as="targetPoint" />
          </mxGeometry>
        </mxCell>
        <mxCell id="qVZMZbQw3n8nsIhbzsBQ-65" value="actionPerformed()" style="html=1;verticalAlign=bottom;endArrow=block;edgeStyle=elbowEdgeStyle;elbow=vertical;curved=0;rounded=0;" edge="1" parent="1">
          <mxGeometry relative="1" as="geometry">
            <mxPoint x="96" y="930" as="sourcePoint" />
            <Array as="points">
              <mxPoint x="191" y="930" />
            </Array>
            <mxPoint x="266" y="930" as="targetPoint" />
          </mxGeometry>
        </mxCell>
        <mxCell id="qVZMZbQw3n8nsIhbzsBQ-66" value="getNextState(button pressed)" style="html=1;verticalAlign=bottom;endArrow=block;edgeStyle=elbowEdgeStyle;elbow=vertical;curved=0;rounded=0;" edge="1" parent="1">
          <mxGeometry x="-0.0014" relative="1" as="geometry">
            <mxPoint x="275" y="950" as="sourcePoint" />
            <Array as="points">
              <mxPoint x="300" y="950" />
            </Array>
            <mxPoint x="445" y="950" as="targetPoint" />
            <mxPoint as="offset" />
          </mxGeometry>
        </mxCell>
        <mxCell id="qVZMZbQw3n8nsIhbzsBQ-73" value="&lt;span style=&quot;font-size: 11px;&quot;&gt;init Calculate&lt;/span&gt;" style="text;html=1;align=center;verticalAlign=middle;resizable=0;points=[];autosize=1;strokeColor=none;fillColor=none;" vertex="1" parent="1">
          <mxGeometry x="490" y="962" width="90" height="30" as="geometry" />
        </mxCell>
        <mxCell id="qVZMZbQw3n8nsIhbzsBQ-74" value="solver:&lt;br&gt;SolveVisitor" style="shape=umlLifeline;perimeter=lifelinePerimeter;whiteSpace=wrap;html=1;container=0;dropTarget=0;collapsible=0;recursiveResize=0;outlineConnect=0;portConstraint=eastwest;newEdgeStyle={&quot;edgeStyle&quot;:&quot;elbowEdgeStyle&quot;,&quot;elbow&quot;:&quot;vertical&quot;,&quot;curved&quot;:0,&quot;rounded&quot;:0};" vertex="1" parent="1">
          <mxGeometry x="760" y="40" width="120" height="1470" as="geometry" />
        </mxCell>
        <mxCell id="qVZMZbQw3n8nsIhbzsBQ-77" value="" style="html=1;points=[];perimeter=orthogonalPerimeter;outlineConnect=0;targetShapes=umlLifeline;portConstraint=eastwest;newEdgeStyle={&quot;edgeStyle&quot;:&quot;elbowEdgeStyle&quot;,&quot;elbow&quot;:&quot;vertical&quot;,&quot;curved&quot;:0,&quot;rounded&quot;:0};" vertex="1" parent="qVZMZbQw3n8nsIhbzsBQ-74">
          <mxGeometry x="55" y="969" width="10" height="171" as="geometry" />
        </mxCell>
        <mxCell id="qVZMZbQw3n8nsIhbzsBQ-78" value="init SolveVisitor" style="html=1;verticalAlign=bottom;endArrow=block;edgeStyle=elbowEdgeStyle;elbow=vertical;curved=0;rounded=0;" edge="1" parent="1" source="qVZMZbQw3n8nsIhbzsBQ-4" target="qVZMZbQw3n8nsIhbzsBQ-77">
          <mxGeometry relative="1" as="geometry">
            <mxPoint x="480" y="1020" as="sourcePoint" />
            <Array as="points">
              <mxPoint x="575" y="1020" />
            </Array>
            <mxPoint x="650" y="1020" as="targetPoint" />
          </mxGeometry>
        </mxCell>
        <mxCell id="qVZMZbQw3n8nsIhbzsBQ-79" value="return" style="html=1;verticalAlign=bottom;endArrow=open;dashed=1;endSize=8;edgeStyle=elbowEdgeStyle;elbow=vertical;curved=0;rounded=0;" edge="1" parent="1" source="qVZMZbQw3n8nsIhbzsBQ-77" target="qVZMZbQw3n8nsIhbzsBQ-4">
          <mxGeometry x="0.0022" relative="1" as="geometry">
            <mxPoint x="610" y="1040" as="targetPoint" />
            <Array as="points">
              <mxPoint x="710" y="1040" />
            </Array>
            <mxPoint x="780" y="1040" as="sourcePoint" />
            <mxPoint as="offset" />
          </mxGeometry>
        </mxCell>
        <mxCell id="qVZMZbQw3n8nsIhbzsBQ-81" value="accept(solver)" style="html=1;verticalAlign=bottom;endArrow=block;edgeStyle=elbowEdgeStyle;elbow=vertical;curved=0;rounded=0;" edge="1" parent="1" source="qVZMZbQw3n8nsIhbzsBQ-4" target="qVZMZbQw3n8nsIhbzsBQ-80">
          <mxGeometry x="0.0022" relative="1" as="geometry">
            <mxPoint x="460" y="1070" as="sourcePoint" />
            <Array as="points">
              <mxPoint x="485" y="1070" />
            </Array>
            <mxPoint x="610" y="1070" as="targetPoint" />
            <mxPoint as="offset" />
          </mxGeometry>
        </mxCell>
        <mxCell id="qVZMZbQw3n8nsIhbzsBQ-82" value="visit(this)" style="html=1;verticalAlign=bottom;endArrow=block;edgeStyle=elbowEdgeStyle;elbow=vertical;curved=0;rounded=0;" edge="1" parent="1">
          <mxGeometry x="0.0022" relative="1" as="geometry">
            <mxPoint x="640" y="1080" as="sourcePoint" />
            <Array as="points">
              <mxPoint x="670" y="1080" />
            </Array>
            <mxPoint x="810" y="1080" as="targetPoint" />
            <mxPoint as="offset" />
          </mxGeometry>
        </mxCell>
        <mxCell id="qVZMZbQw3n8nsIhbzsBQ-83" value="return" style="html=1;verticalAlign=bottom;endArrow=open;dashed=1;endSize=8;edgeStyle=elbowEdgeStyle;elbow=vertical;curved=0;rounded=0;" edge="1" parent="1">
          <mxGeometry x="0.0022" relative="1" as="geometry">
            <mxPoint x="640" y="1100" as="targetPoint" />
            <Array as="points">
              <mxPoint x="740" y="1100" />
            </Array>
            <mxPoint x="810" y="1100" as="sourcePoint" />
            <mxPoint as="offset" />
          </mxGeometry>
        </mxCell>
        <mxCell id="qVZMZbQw3n8nsIhbzsBQ-84" value="return" style="html=1;verticalAlign=bottom;endArrow=open;dashed=1;endSize=8;edgeStyle=elbowEdgeStyle;elbow=vertical;curved=0;rounded=0;" edge="1" parent="1">
          <mxGeometry x="0.0022" relative="1" as="geometry">
            <mxPoint x="455" y="1111" as="targetPoint" />
            <Array as="points">
              <mxPoint x="555" y="1111" />
            </Array>
            <mxPoint x="625" y="1111" as="sourcePoint" />
            <mxPoint as="offset" />
          </mxGeometry>
        </mxCell>
        <mxCell id="qVZMZbQw3n8nsIhbzsBQ-85" value="getResult()" style="html=1;verticalAlign=bottom;endArrow=block;edgeStyle=elbowEdgeStyle;elbow=vertical;curved=0;rounded=0;" edge="1" parent="1" source="qVZMZbQw3n8nsIhbzsBQ-4" target="qVZMZbQw3n8nsIhbzsBQ-77">
          <mxGeometry x="0.0022" relative="1" as="geometry">
            <mxPoint x="460" y="1140" as="sourcePoint" />
            <Array as="points">
              <mxPoint x="490" y="1140" />
            </Array>
            <mxPoint x="630" y="1140" as="targetPoint" />
            <mxPoint as="offset" />
          </mxGeometry>
        </mxCell>
        <mxCell id="qVZMZbQw3n8nsIhbzsBQ-87" value="return" style="html=1;verticalAlign=bottom;endArrow=open;dashed=1;endSize=8;edgeStyle=elbowEdgeStyle;elbow=vertical;curved=0;rounded=0;" edge="1" parent="1">
          <mxGeometry x="0.0022" relative="1" as="geometry">
            <mxPoint x="455" y="1163" as="targetPoint" />
            <Array as="points">
              <mxPoint x="710" y="1163" />
            </Array>
            <mxPoint x="815" y="1163" as="sourcePoint" />
            <mxPoint as="offset" />
          </mxGeometry>
        </mxCell>
        <mxCell id="qVZMZbQw3n8nsIhbzsBQ-88" value="return Calculate" style="html=1;verticalAlign=bottom;endArrow=open;dashed=1;endSize=8;edgeStyle=elbowEdgeStyle;elbow=vertical;curved=0;rounded=0;" edge="1" parent="1">
          <mxGeometry relative="1" as="geometry">
            <mxPoint x="274" y="1179.26" as="targetPoint" />
            <Array as="points">
              <mxPoint x="374" y="1179.26" />
            </Array>
            <mxPoint x="444" y="1179.26" as="sourcePoint" />
          </mxGeometry>
        </mxCell>
        <mxCell id="qVZMZbQw3n8nsIhbzsBQ-89" value="bw: BufferedWriter" style="shape=umlLifeline;perimeter=lifelinePerimeter;whiteSpace=wrap;html=1;container=0;dropTarget=0;collapsible=0;recursiveResize=0;outlineConnect=0;portConstraint=eastwest;newEdgeStyle={&quot;edgeStyle&quot;:&quot;elbowEdgeStyle&quot;,&quot;elbow&quot;:&quot;vertical&quot;,&quot;curved&quot;:0,&quot;rounded&quot;:0};" vertex="1" parent="1">
          <mxGeometry x="950" y="40" width="120" height="1470" as="geometry" />
        </mxCell>
        <mxCell id="qVZMZbQw3n8nsIhbzsBQ-90" value="" style="html=1;points=[];perimeter=orthogonalPerimeter;outlineConnect=0;targetShapes=umlLifeline;portConstraint=eastwest;newEdgeStyle={&quot;edgeStyle&quot;:&quot;elbowEdgeStyle&quot;,&quot;elbow&quot;:&quot;vertical&quot;,&quot;curved&quot;:0,&quot;rounded&quot;:0};" vertex="1" parent="qVZMZbQw3n8nsIhbzsBQ-89">
          <mxGeometry x="55" y="1225" width="10" height="130" as="geometry" />
        </mxCell>
        <mxCell id="qVZMZbQw3n8nsIhbzsBQ-91" value="write(equation)" style="html=1;verticalAlign=bottom;endArrow=block;edgeStyle=elbowEdgeStyle;elbow=vertical;curved=0;rounded=0;" edge="1" parent="1">
          <mxGeometry x="0.0031" relative="1" as="geometry">
            <mxPoint x="280" y="1280" as="sourcePoint" />
            <Array as="points">
              <mxPoint x="305" y="1280" />
            </Array>
            <mxPoint x="1005" y="1280" as="targetPoint" />
            <mxPoint as="offset" />
          </mxGeometry>
        </mxCell>
        <mxCell id="qVZMZbQw3n8nsIhbzsBQ-92" value="return" style="html=1;verticalAlign=bottom;endArrow=open;dashed=1;endSize=8;edgeStyle=elbowEdgeStyle;elbow=vertical;curved=0;rounded=0;" edge="1" parent="1">
          <mxGeometry x="0.0022" relative="1" as="geometry">
            <mxPoint x="275" y="1310" as="targetPoint" />
            <Array as="points">
              <mxPoint x="720" y="1310" />
            </Array>
            <mxPoint x="1005" y="1310" as="sourcePoint" />
            <mxPoint as="offset" />
          </mxGeometry>
        </mxCell>
        <mxCell id="qVZMZbQw3n8nsIhbzsBQ-93" value="flush()" style="html=1;verticalAlign=bottom;endArrow=block;edgeStyle=elbowEdgeStyle;elbow=vertical;curved=0;rounded=0;" edge="1" parent="1">
          <mxGeometry x="0.0031" relative="1" as="geometry">
            <mxPoint x="280" y="1340" as="sourcePoint" />
            <Array as="points">
              <mxPoint x="305" y="1340" />
            </Array>
            <mxPoint x="1005" y="1340" as="targetPoint" />
            <mxPoint as="offset" />
          </mxGeometry>
        </mxCell>
        <mxCell id="qVZMZbQw3n8nsIhbzsBQ-94" value="return" style="html=1;verticalAlign=bottom;endArrow=open;dashed=1;endSize=8;edgeStyle=elbowEdgeStyle;elbow=vertical;curved=0;rounded=0;" edge="1" parent="1">
          <mxGeometry x="0.0022" relative="1" as="geometry">
            <mxPoint x="275" y="1370" as="targetPoint" />
            <Array as="points">
              <mxPoint x="720" y="1370" />
            </Array>
            <mxPoint x="1005" y="1370" as="sourcePoint" />
            <mxPoint as="offset" />
          </mxGeometry>
        </mxCell>
        <mxCell id="qVZMZbQw3n8nsIhbzsBQ-95" value="alt" style="shape=umlFrame;whiteSpace=wrap;html=1;pointerEvents=0;" vertex="1" parent="1">
          <mxGeometry x="-120" y="1260" width="1270" height="140" as="geometry" />
        </mxCell>
        <mxCell id="qVZMZbQw3n8nsIhbzsBQ-96" value="finalSocket is connected" style="text;html=1;align=center;verticalAlign=middle;resizable=0;points=[];autosize=1;strokeColor=none;fillColor=none;" vertex="1" parent="1">
          <mxGeometry x="-105" y="1300" width="150" height="30" as="geometry" />
        </mxCell>
        <mxCell id="qVZMZbQw3n8nsIhbzsBQ-97" value="getResult()" style="html=1;verticalAlign=bottom;endArrow=block;edgeStyle=elbowEdgeStyle;elbow=vertical;curved=0;rounded=0;" edge="1" parent="1">
          <mxGeometry x="0.0019" relative="1" as="geometry">
            <mxPoint x="277" y="1205" as="sourcePoint" />
            <Array as="points">
              <mxPoint x="302" y="1205" />
            </Array>
            <mxPoint x="447" y="1205" as="targetPoint" />
            <mxPoint as="offset" />
          </mxGeometry>
        </mxCell>
        <mxCell id="qVZMZbQw3n8nsIhbzsBQ-98" value="return" style="html=1;verticalAlign=bottom;endArrow=open;dashed=1;endSize=8;edgeStyle=elbowEdgeStyle;elbow=vertical;curved=0;rounded=0;" edge="1" parent="1">
          <mxGeometry relative="1" as="geometry">
            <mxPoint x="274" y="1229.26" as="targetPoint" />
            <Array as="points">
              <mxPoint x="374" y="1229.26" />
            </Array>
            <mxPoint x="444" y="1229.26" as="sourcePoint" />
          </mxGeometry>
        </mxCell>
        <mxCell id="qVZMZbQw3n8nsIhbzsBQ-99" value="updateDisplay()" style="html=1;verticalAlign=bottom;endArrow=block;edgeStyle=elbowEdgeStyle;elbow=vertical;curved=0;rounded=0;" edge="1" parent="1">
          <mxGeometry relative="1" as="geometry">
            <mxPoint x="261.9999999999998" y="1420" as="sourcePoint" />
            <Array as="points">
              <mxPoint x="187" y="1420" />
            </Array>
            <mxPoint x="97" y="1420" as="targetPoint" />
          </mxGeometry>
        </mxCell>
      </root>
    </mxGraphModel>
  </diagram>
</mxfile>
